<svg xmlns="http://www.w3.org/2000/svg" width="900" height="520" viewBox="0 0 900 520">
<rect width="100%" height="100%" fill="white"/>
<text x="450.0" y="28" text-anchor="middle" font-family="sans-serif" font-size="18">OOD macro-mean regret by training regime</text>
<line x1="90" y1="420" x2="840" y2="420" stroke="black"/>
<line x1="90" y1="60" x2="90" y2="420" stroke="black"/>
<text x="80" y="424.0" text-anchor="end" font-family="sans-serif" font-size="11">0.0%</text>
<text x="80" y="352.0" text-anchor="end" font-family="sans-serif" font-size="11">28.3%</text>
<text x="80" y="280.0" text-anchor="end" font-family="sans-serif" font-size="11">56.6%</text>
<text x="80" y="208.0" text-anchor="end" font-family="sans-serif" font-size="11">84.9%</text>
<text x="80" y="136.0" text-anchor="end" font-family="sans-serif" font-size="11">113.1%</text>
<text x="80" y="64.0" text-anchor="end" font-family="sans-serif" font-size="11">141.4%</text>
<rect x="146.0" y="107.0" width="62" height="313.0" fill="#777777"/>
<text x="177.0" y="102.0" text-anchor="middle" font-family="sans-serif" font-size="10">123.0%</text>
<rect x="222.0" y="130.9" width="62" height="289.1" fill="#1f77b4"/>
<text x="253.0" y="125.9" text-anchor="middle" font-family="sans-serif" font-size="10">113.6%</text>
<text x="215.0" y="444" text-anchor="middle" font-family="sans-serif" font-size="11">reinforce</text>
<rect x="396.0" y="268.3" width="62" height="151.7" fill="#777777"/>
<text x="427.0" y="263.3" text-anchor="middle" font-family="sans-serif" font-size="10">59.6%</text>
<rect x="472.0" y="279.9" width="62" height="140.1" fill="#1f77b4"/>
<text x="503.0" y="274.9" text-anchor="middle" font-family="sans-serif" font-size="10">55.1%</text>
<text x="465.0" y="444" text-anchor="middle" font-family="sans-serif" font-size="11">classifier</text>
<rect x="646.0" y="285.7" width="62" height="134.3" fill="#777777"/>
<text x="677.0" y="280.7" text-anchor="middle" font-family="sans-serif" font-size="10">52.8%</text>
<rect x="722.0" y="276.8" width="62" height="143.2" fill="#1f77b4"/>
<text x="753.0" y="271.8" text-anchor="middle" font-family="sans-serif" font-size="10">56.2%</text>
<text x="715.0" y="444" text-anchor="middle" font-family="sans-serif" font-size="11">cost_regressor</text>
<rect x="600" y="68" width="14" height="14" fill="#777777"/>
<text x="620" y="80" font-family="sans-serif" font-size="11">narrow</text>
<rect x="750" y="68" width="14" height="14" fill="#1f77b4"/>
<text x="770" y="80" font-family="sans-serif" font-size="11">domain_randomized</text>
</svg>